<?xml version="1.0" encoding="utf-8"?>
<!-- Generator: Adobe Illustrator 20.0.0, SVG Export Plug-In . SVG Version: 6.00 Build 0)  -->
<svg version="1.1" id="Layer_1" xmlns="http://www.w3.org/2000/svg" xmlns:xlink="http://www.w3.org/1999/xlink" x="0px" y="0px"
	 viewBox="0 0 1022.6 639.5" style="enable-background:new 0 0 1022.6 639.5;" xml:space="preserve">
<style type="text/css">
	.st0{fill:#C834E3;}
	.st1{fill:#FF7E2C;}
	.st2{fill:#FF2076;}
	.st3{fill:#FFFFFF;}
</style>
<circle class="st0" cx="319.8" cy="319.8" r="319.8"/>
<circle class="st1" cx="697.5" cy="319.8" r="319.8"/>
<path class="st2" d="M377.8,319.8c0,105.9,51.5,199.8,130.9,258c79.3-58.2,130.9-152.1,130.9-258S588,119.9,508.6,61.8
	C429.3,119.9,377.8,213.8,377.8,319.8z"/>
<g>
	<g>
		<path class="st3" d="M507.2,159.6c-22.7,12.9-42,31-56.3,52.8c-2.4,3.6,1.6,8.6,5.6,7.3c22.3-6.9,44.8-13.9,68.4-14.4
			c-1.4-2.5-2.9-5-4.3-7.5c-10,14.5-20,29-30,43.6c-5,7.3-10,14.5-15,21.8c-3.6,5.2-7.7,11.8-3.5,17.9c3.2,4.7,9.2,5.1,14.2,4.1
			c8.2-1.6,16.4-5.5,24.3-8.3c16.9-6,33.9-11.9,50.8-17.9c-1.9-2.4-3.8-4.9-5.6-7.3c-13.1,19.9-26.2,39.8-39.3,59.6
			c-6.3,9.5-12.8,18.9-18.8,28.6c-4.9,8-8.4,17.7-3.1,26.4c1.1,1.8,3.6,3.1,5.6,2.3c24.9-9.3,49.9-18.6,74.8-28
			c-1.9-2.4-3.8-4.9-5.6-7.3c-15.6,25.2-31.2,50.3-46.8,75.5c-3.8,6.2-7.6,12.3-11.4,18.5c-3.3,5.4-7.4,10.7-9.9,16.6
			c-3.3,8-2.7,18.8,7.7,20c6.4,0.7,6.3-9.3,0-10c0.7,0.1,0.6,0.6,0.4-0.5c-0.1-0.6,0-1.3,0-1.9c0.2-1.6,0.7-3.3,1.5-4.8
			c2.6-5.3,6.3-10.2,9.4-15.2c6.4-10.3,12.8-20.7,19.2-31c12.8-20.7,25.6-41.4,38.5-62.1c2.2-3.5-1.5-8.9-5.6-7.3
			c-24.9,9.3-49.9,18.6-74.8,28c1.9,0.8,3.8,1.5,5.6,2.3c-4.8-7.9,4.6-18.6,8.8-24.9c5.8-8.8,11.6-17.7,17.5-26.5
			c11.6-17.7,23.3-35.3,34.9-53c2.3-3.5-1.6-8.8-5.6-7.3c-14.1,5-28.2,9.9-42.3,14.9c-4,1.4-34.9,14.1-36.1,10.5
			c-0.5-1.6,4.3-7.1,5-8.2c2-3,4.1-5.9,6.1-8.9c4.1-5.9,8.1-11.8,12.2-17.7c8.5-12.4,17-24.7,25.5-37.1c2.2-3.1-0.7-7.6-4.3-7.5
			c-24.4,0.6-47.9,7.6-71,14.8c1.9,2.4,3.8,4.9,5.6,7.3c13.4-20.4,31.5-37.2,52.7-49.2C517.8,165,512.8,156.4,507.2,159.6
			L507.2,159.6z"/>
	</g>
</g>
<g>
	<path class="st3" d="M93.3,333.9l-2.8,7.7H75.9l21.4-53.3H108l21.2,53.3h-14.8l-2.6-7.7H93.3z M97.1,323.1h11.2l-5.5-18.2h-0.1
		h-0.1L97.1,323.1z"/>
	<path class="st3" d="M198,341.6h-11.4v-4.3h-0.1c-1,1.7-3.9,5.6-12,5.6c-12.1,0-20-9.4-20-21.4c0-13.5,9.6-21.2,19.8-21.2
		c7.1,0,10.4,3.5,11.7,4.8v-16.7h12V341.6z M176.5,331.7c7.5,0,10.2-6.1,10.2-10.3c0-4.8-3.5-10-10.1-10c-6.9,0-10.2,5.4-10.2,10
		C166.5,327.6,170.9,331.7,176.5,331.7z"/>
	<path class="st3" d="M245.2,329.1c-1.9,4.5-4.8,7.9-8.1,10.2c-3.3,2.4-7.3,3.6-11.4,3.6c-11.4,0-21.2-9.3-21.2-21.2
		c0-11.2,8.8-21.5,21-21.5c12.2,0,21.1,9.6,21.1,21.8c0,1.6-0.1,2.2-0.3,3.2h-30c0.7,4.8,4.7,7.6,9.4,7.6c3.7,0,5.6-1.7,7.3-3.7
		H245.2z M234.6,317.2c-0.5-2.4-2.9-6.8-9.1-6.8s-8.6,4.5-9.1,6.8H234.6z"/>
	<path class="st3" d="M253.2,288.3h12v16.5c4.2-4.5,9.9-4.5,11.6-4.5c8.4,0,19.7,6,19.7,21.1c0,14.4-10,21.6-20.2,21.6
		c-5.6,0-9.9-2.7-11.4-5.6h-0.1v4.2h-11.4V288.3z M274.4,331.8c6.1,0,10-5,10-10.2c0-5.2-3.9-10.2-9.8-10.2c-6.3,0-9.9,5.1-9.9,10.1
		C264.7,327,268.4,331.8,274.4,331.8z"/>
	<path class="st3" d="M345,341.6h-12v-4.3h-0.1c-2,3.9-7,5.7-11.7,5.7c-12.7,0-20.1-9.9-20.1-21.4c0-13.1,9.4-21.3,20.1-21.3
		c6.6,0,10.2,3.2,11.7,5.6h0.1v-4.2h12V341.6z M323.1,331.8c7.5,0,10-6.3,10-10.2c0-4.8-3.3-10.2-10.1-10.2c-6.8,0-9.9,5.8-9.9,10.3
		C313.1,325.5,315.9,331.8,323.1,331.8z"/>
	<path class="st3" d="M368.4,301.6h5.8v9.1h-5.8v30.9h-12v-30.9h-5.9v-9.1h5.9v-13.3h12V301.6z"/>
	<path class="st3" d="M417.9,329.1c-1.9,4.5-4.8,7.9-8.1,10.2c-3.3,2.4-7.3,3.6-11.4,3.6c-11.4,0-21.2-9.3-21.2-21.2
		c0-11.2,8.8-21.5,21-21.5c12.2,0,21.1,9.6,21.1,21.8c0,1.6-0.1,2.2-0.3,3.2h-30c0.7,4.8,4.7,7.6,9.4,7.6c3.7,0,5.6-1.7,7.3-3.7
		H417.9z M407.3,317.2c-0.5-2.4-2.9-6.8-9.1-6.8s-8.6,4.5-9.1,6.8H407.3z"/>
</g>
<g>
	<path class="st3" d="M631.6,288.3h17.4c9.9,0,13.5,1.5,16.4,3.9c4.2,3.5,6.3,8.7,6.3,14.1s-2.2,11.1-5.6,14
		c-3.7,3.1-7.3,4.6-15.6,4.6h-5.9v16.7h-13V288.3z M644.7,312.9h5.5c2.6,0,8.5,0,8.5-6.4c0-6.3-6-6.3-9-6.3h-5V312.9z"/>
	<path class="st3" d="M695.1,300.3c14.5,0,21.5,11.4,21.5,21.2s-7,21.2-21.5,21.2c-14.5,0-21.5-11.4-21.5-21.2
		S680.6,300.3,695.1,300.3z M695.1,331.7c5.2,0,9.6-4.2,9.6-10.1c0-5.8-4.4-10.1-9.6-10.1s-9.6,4.2-9.6,10.1
		C685.6,327.4,690,331.7,695.1,331.7z"/>
	<path class="st3" d="M723.4,288.3h12v53.3h-12V288.3z"/>
	<path class="st3" d="M756,297.4h-12v-9.1h12V297.4z M756,341.6h-12v-40h12V341.6z"/>
	<path class="st3" d="M778.9,301.6h5.8v9.1h-5.8v30.9h-12v-30.9h-5.9v-9.1h5.9v-13.3h12V301.6z"/>
	<path class="st3" d="M801.8,297.4h-12v-9.1h12V297.4z M801.8,341.6h-12v-40h12V341.6z"/>
	<path class="st3" d="M810.9,310.7h-4.5v-9.1h4.5v-2.1c0-11.2,9.4-12.2,15.3-12.2h1.7v9h-1.4c-1,0-3.7,0.4-3.7,3.7v1.6h5v9.1h-5
		v30.9h-12V310.7z"/>
	<path class="st3" d="M873.6,341.6h-12v-4.3h-0.1c-2,3.9-7,5.7-11.7,5.7c-12.7,0-20.1-9.9-20.1-21.4c0-13.1,9.4-21.3,20.1-21.3
		c6.6,0,10.2,3.2,11.7,5.6h0.1v-4.2h12V341.6z M851.7,331.8c7.5,0,10-6.3,10-10.2c0-4.8-3.3-10.2-10.1-10.2c-6.8,0-9.9,5.8-9.9,10.3
		C841.7,325.5,844.5,331.8,851.7,331.8z"/>
	<path class="st3" d="M922.7,326.4c-2.2,9.1-10.2,16.5-21,16.5c-12.1,0-21.4-9.5-21.4-21.4c0-11.7,9.1-21.2,21.1-21.2
		c10.6,0,19.2,7,21.2,16.8h-12.1c-1.3-2.7-3.7-5.6-8.6-5.6c-5.7-0.3-9.5,4.4-9.5,10.2c0,5.8,3.8,10.2,9.5,10.2c5,0,7.3-2.9,8.6-5.3
		H922.7z"/>
	<path class="st3" d="M943.6,301.6h5.8v9.1h-5.8v30.9h-12v-30.9h-5.9v-9.1h5.9v-13.3h12V301.6z"/>
</g>
</svg>
