<?xml version="1.0" encoding="utf-8"?>
<!-- Generator: Adobe Illustrator 20.0.0, SVG Export Plug-In . SVG Version: 6.00 Build 0)  -->
<svg version="1.1" id="Layer_1" xmlns="http://www.w3.org/2000/svg" xmlns:xlink="http://www.w3.org/1999/xlink" x="0px" y="0px"
	 viewBox="0 0 1017.3 639.6" style="enable-background:new 0 0 1017.3 639.6;" xml:space="preserve">
<style type="text/css">
	.st0{fill:#FFB250;}
	.st1{fill:#8BC5FF;}
	.st2{fill:#FF2076;}
	.st3{fill:#FFFFFF;}
	.st4{enable-background:new    ;}
</style>
<circle class="st0" cx="319.8" cy="319.8" r="319.8"/>
<circle class="st1" cx="697.5" cy="319.8" r="319.8"/>
<path class="st2" d="M377.8,319.8c0,105.9,51.5,199.8,130.9,258c79.3-58.2,130.9-152.1,130.9-258s-51.6-199.9-131-258
	C429.3,119.9,377.8,213.8,377.8,319.8z"/>
<g>
	<g>
		<path class="st3" d="M507.2,159.6c-22.7,12.9-42,31-56.3,52.8c-2.4,3.6,1.6,8.6,5.6,7.3c22.3-6.9,44.8-13.9,68.4-14.4
			c-1.4-2.5-2.9-5-4.3-7.5c-10,14.5-20,29-30,43.6c-5,7.3-10,14.5-15,21.8c-3.6,5.2-7.7,11.8-3.5,17.9c3.2,4.7,9.2,5.1,14.2,4.1
			c8.2-1.6,16.4-5.5,24.3-8.3c16.9-6,33.9-11.9,50.8-17.9c-1.9-2.4-3.8-4.9-5.6-7.3c-13.1,19.9-26.2,39.8-39.3,59.6
			c-6.3,9.5-12.8,18.9-18.8,28.6c-4.9,8-8.4,17.7-3.1,26.4c1.1,1.8,3.6,3.1,5.6,2.3c24.9-9.3,49.9-18.6,74.8-28
			c-1.9-2.4-3.8-4.9-5.6-7.3c-15.6,25.2-31.2,50.3-46.8,75.5c-3.8,6.2-7.6,12.3-11.4,18.5c-3.3,5.4-7.4,10.7-9.9,16.6
			c-3.3,8-2.7,18.8,7.7,20c6.4,0.7,6.3-9.3,0-10c0.7,0.1,0.6,0.6,0.4-0.5c-0.1-0.6,0-1.3,0-1.9c0.2-1.6,0.7-3.3,1.5-4.8
			c2.6-5.3,6.3-10.2,9.4-15.2c6.4-10.3,12.8-20.7,19.2-31c12.8-20.7,25.6-41.4,38.5-62.1c2.2-3.5-1.5-8.9-5.6-7.3
			c-24.9,9.3-49.9,18.6-74.8,28c1.9,0.8,3.8,1.5,5.6,2.3c-4.8-7.9,4.6-18.6,8.8-24.9c5.8-8.8,11.6-17.7,17.5-26.5
			c11.6-17.7,23.3-35.3,34.9-53c2.3-3.5-1.6-8.8-5.6-7.3c-14.1,5-28.2,9.9-42.3,14.9c-4,1.4-34.9,14.1-36.1,10.5
			c-0.5-1.6,4.3-7.1,5-8.2c2-3,4.1-5.9,6.1-8.9c4.1-5.9,8.1-11.8,12.2-17.7c8.5-12.4,17-24.7,25.5-37.1c2.2-3.1-0.7-7.6-4.3-7.5
			c-24.4,0.6-47.9,7.6-71,14.8c1.9,2.4,3.8,4.9,5.6,7.3c13.4-20.4,31.5-37.2,52.7-49.2C517.8,165,512.8,156.4,507.2,159.6
			L507.2,159.6z"/>
	</g>
</g>
<g class="st4">
	<path class="st3" d="M170.1,157.9h-10.5v-12h34.6v12h-10.4v41.3h-13.6v-41.3H170.1z"/>
	<path class="st3" d="M199.1,145.9h12v17h0.1c2-3.6,6-5,10.3-5c3.8,0,8.4,1.4,10.9,4.4c3.4,4,3.7,7.5,3.7,14.6v22.3h-12v-21.7
		c0-1.9,0-8.4-6.4-8.4c-6.7,0-6.7,6-6.7,7.9v22.2h-12L199.1,145.9L199.1,145.9z"/>
	<path class="st3" d="M283.2,186.7c-1.9,4.5-4.8,7.9-8.1,10.2c-3.3,2.4-7.3,3.6-11.4,3.6c-11.4,0-21.2-9.3-21.2-21.2
		c0-11.2,8.8-21.5,21-21.5c12.2,0,21.1,9.6,21.1,21.8c0,1.6-0.1,2.2-0.3,3.2h-30c0.7,4.8,4.7,7.6,9.4,7.6c3.7,0,5.6-1.7,7.3-3.7
		L283.2,186.7L283.2,186.7z M272.6,174.8c-0.5-2.4-2.9-6.8-9.1-6.8s-8.6,4.5-9.1,6.8H272.6z"/>
</g>
<g class="st4">
	<path class="st3" d="M163.2,245.6h11.2v4.2h0.1c0.9-1.7,3.5-5.6,11-5.6c3.5,0,8.4,1.2,11.5,7.1c2.4-3.9,6.6-7.1,12.7-7.1
		c2.8,0,7.3,0.6,10.5,4c3.7,4,4.3,6.6,4.3,15.5v21.8h-12v-21.2c0-3.2,0-8.9-6.1-8.9c-6.6,0-6.6,6-6.6,8.3v21.8h-12v-21.7
		c0-2.2,0-8.4-6-8.4c-6.8,0-6.8,6.5-6.8,8.9v21.2h-12v-39.9H163.2z"/>
	<path class="st3" d="M252.6,244.3c14.5,0,21.5,11.4,21.5,21.2c0,9.8-7,21.2-21.5,21.2s-21.5-11.4-21.5-21.2
		S238.1,244.3,252.6,244.3z M252.6,275.7c5.2,0,9.6-4.2,9.6-10.1c0-5.8-4.4-10.1-9.6-10.1s-9.6,4.2-9.6,10.1
		C243.1,271.4,247.5,275.7,252.6,275.7z"/>
	<path class="st3" d="M280.9,245.6h11.2v4.2h0.1c1-1.9,3.1-5.6,10-5.6v12c-5.5,0.1-9.4,1.3-9.4,7.3v22h-12L280.9,245.6L280.9,245.6z
		"/>
	<path class="st3" d="M345.3,273.1c-1.9,4.5-4.8,7.9-8.1,10.2c-3.3,2.4-7.3,3.6-11.4,3.6c-11.4,0-21.2-9.3-21.2-21.2
		c0-11.2,8.8-21.5,21-21.5s21.1,9.6,21.1,21.8c0,1.6-0.1,2.2-0.3,3.2h-30c0.7,4.8,4.7,7.6,9.4,7.6c3.7,0,5.6-1.7,7.3-3.7H345.3z
		 M334.7,261.2c-0.5-2.4-2.9-6.8-9.1-6.8s-8.6,4.5-9.1,6.8H334.7z"/>
</g>
<g class="st4">
	<path class="st3" d="M200.1,332l-20,53.3h-12.7l6.3-15.3L159,332h12.7l8,23.2h0.1l7.6-23.2H200.1z"/>
	<path class="st3" d="M222,330.7c14.5,0,21.5,11.4,21.5,21.2s-7,21.2-21.5,21.2s-21.5-11.4-21.5-21.2S207.5,330.7,222,330.7z
		 M222,362.1c5.2,0,9.6-4.2,9.6-10.1c0-5.8-4.4-10.1-9.6-10.1s-9.6,4.2-9.6,10.1C212.5,357.8,216.8,362.1,222,362.1z"/>
	<path class="st3" d="M287.3,372H276v-4.2h-0.1c-2.4,5.1-7.3,5.5-10.4,5.5c-2.4,0-8.2-0.6-11.7-5c-3.2-4-3.6-6.8-3.6-12.3v-24h12
		v22.1c0,2.7,0,8,6.4,8c3.5,0,6.8-1.8,6.8-8.1v-22h12v40H287.3z"/>
</g>
<g class="st4">
	<path class="st3" d="M163.6,405.1h12v27.8h0.1l11.1-14.5H201L186,436l14.6,22.4H187l-11.3-19.2h-0.1v19.2h-12L163.6,405.1
		L163.6,405.1z"/>
	<path class="st3" d="M205.8,418.4H217v4.2h0.1c1.2-1.9,3.7-5.6,10.9-5.6c3.8,0,8.1,1.6,10.2,3.5s4.6,5,4.6,12.9v25h-12v-21.8
		c0-2.8,0-8.3-6.3-8.3c-6.8,0-6.8,5.9-6.8,8.4v21.7h-12v-40H205.8z"/>
	<path class="st3" d="M270.9,417.1c14.5,0,21.5,11.4,21.5,21.2s-7,21.2-21.5,21.2s-21.5-11.4-21.5-21.2S256.4,417.1,270.9,417.1z
		 M270.9,448.5c5.2,0,9.6-4.2,9.6-10.1c0-5.8-4.4-10.1-9.6-10.1s-9.6,4.2-9.6,10.1C261.3,444.2,265.7,448.5,270.9,448.5z"/>
	<path class="st3" d="M306.3,418.4l6,24.8h0.1l6.6-24.8h10.1l6.6,24.8h0.1l6-24.8h12.3l-12.2,40h-11.1l-6.7-25.9H324l-6.7,25.9
		h-11.1l-12.2-40H306.3z"/>
</g>
<g class="st4">
	<path class="st3" d="M665.9,179.8L650,145.9h14.8l7.9,21.4l8-21.4h14.6l-15.8,33.9v19.4h-13.6V179.8z"/>
	<path class="st3" d="M713.5,157.9c14.5,0,21.5,11.4,21.5,21.2s-7,21.2-21.5,21.2S692,188.9,692,179.1S699,157.9,713.5,157.9z
		 M713.5,189.3c5.2,0,9.6-4.2,9.6-10.1c0-5.8-4.4-10.1-9.6-10.1s-9.6,4.2-9.6,10.1C703.9,185,708.3,189.3,713.5,189.3z"/>
	<path class="st3" d="M778.8,199.2h-11.3V195h-0.1c-2.4,5.1-7.3,5.5-10.4,5.5c-2.4,0-8.2-0.6-11.7-5c-3.2-4-3.6-6.8-3.6-12.3v-23.9
		h12v22.1c0,2.7,0,8,6.4,8c3.5,0,6.8-1.8,6.8-8.1v-22h12v39.9H778.8z"/>
	<path class="st3" d="M800.7,161c0,7.1-4.8,8.7-7.3,8.7h-5.2v-6.4h2.6c2.7,0,3.1-1.9,3.1-2.7v-2.4h-5.7V146h12.5L800.7,161
		L800.7,161z"/>
	<path class="st3" d="M810.1,145.9h12v53.3h-12V145.9z"/>
	<path class="st3" d="M830.6,145.9h12v53.3h-12V145.9z"/>
</g>
<g class="st4">
	<path class="st3" d="M653.7,245.6h11.2v4.2h0.1c1.2-1.9,3.7-5.6,10.9-5.6c3.8,0,8.1,1.6,10.2,3.5s4.6,5,4.6,12.9v25h-12v-21.8
		c0-2.8,0-8.3-6.3-8.3c-6.8,0-6.8,5.9-6.8,8.4v21.7h-12L653.7,245.6L653.7,245.6z"/>
	<path class="st3" d="M737.7,273.1c-1.9,4.5-4.8,7.9-8.1,10.2c-3.3,2.4-7.3,3.6-11.4,3.6c-11.4,0-21.2-9.3-21.2-21.2
		c0-11.2,8.8-21.5,21-21.5s21.1,9.6,21.1,21.8c0,1.6-0.1,2.2-0.3,3.2h-30c0.7,4.8,4.7,7.6,9.4,7.6c3.7,0,5.6-1.7,7.3-3.7H737.7z
		 M727.1,261.2c-0.5-2.4-2.9-6.8-9.1-6.8s-8.6,4.5-9.1,6.8H727.1z"/>
	<path class="st3" d="M766.9,285.6h-11.4l-14.3-40h12.4l7.6,24.9h0.1l7.6-24.9h12.4L766.9,285.6z"/>
	<path class="st3" d="M824,273.1c-1.9,4.5-4.8,7.9-8.1,10.2c-3.3,2.4-7.3,3.6-11.4,3.6c-11.4,0-21.2-9.3-21.2-21.2
		c0-11.2,8.8-21.5,21-21.5s21.1,9.6,21.1,21.8c0,1.6-0.1,2.2-0.3,3.2h-30c0.7,4.8,4.7,7.6,9.4,7.6c3.7,0,5.6-1.7,7.3-3.7H824z
		 M813.4,261.2c-0.5-2.4-2.9-6.8-9.1-6.8s-8.6,4.5-9.1,6.8H813.4z"/>
	<path class="st3" d="M831.9,245.6h11.2v4.2h0.1c1-1.9,3.1-5.6,10-5.6v12c-5.5,0.1-9.4,1.3-9.4,7.3v22h-12v-39.9H831.9z"/>
</g>
<g class="st4">
	<path class="st3" d="M695.1,367.2c0,6-0.4,9.8-2.4,13.2c-3.1,5-10.4,9.4-20.2,9.4c-13.9,0-19.2-8.4-19.9-14h13.8c1.7,4,6.2,4,7,4
		c1.5,0,9.7-0.1,9.7-10.9v-1.2H683c-1.2,2.3-4.7,5.7-10.9,5.7c-10.9,0-20.2-8.2-20.2-21c0-13.7,9.8-21.5,20.2-21.5
		c4.5,0,8.9,1.6,11,5h0.1V332h12L695.1,367.2L695.1,367.2z M673.3,362.1c5.8,0,9.8-4.2,9.8-9.9c0-6.4-4.4-10.3-9.7-10.3
		c-5.1,0-9.6,4.1-9.6,9.9C663.8,358.2,668.4,362.1,673.3,362.1z"/>
	<path class="st3" d="M740.6,372h-11.3v-4.2h-0.1c-2.4,5.1-7.3,5.5-10.4,5.5c-2.4,0-8.2-0.6-11.7-5c-3.2-4-3.6-6.8-3.6-12.3v-24h12
		v22.1c0,2.7,0,8,6.4,8c3.5,0,6.8-1.8,6.8-8.1v-22h12v40H740.6z"/>
	<path class="st3" d="M787.8,359.5c-1.9,4.5-4.8,7.9-8.1,10.2c-3.3,2.4-7.3,3.6-11.4,3.6c-11.4,0-21.2-9.3-21.2-21.2
		c0-11.2,8.8-21.5,21-21.5s21.1,9.6,21.1,21.8c0,1.6-0.1,2.2-0.3,3.2h-30c0.7,4.8,4.7,7.6,9.4,7.6c3.7,0,5.6-1.7,7.3-3.7H787.8z
		 M777.2,347.6c-0.5-2.4-2.9-6.8-9.1-6.8s-8.6,4.5-9.1,6.8H777.2z"/>
	<path class="st3" d="M812.7,343.3c-0.1-0.9-0.2-3-3.7-3c-2.5,0-3.4,1.6-3.4,2.7c0,2.2,3,3.4,6.1,4.3c6.8,1.9,14,3.9,14,12.5
		c0,8.4-7.4,13.6-16.3,13.6c-6,0-15.2-2.7-16.3-13.2H805c0.5,3.7,4,3.7,4.5,3.7c2,0,4.2-1.2,4.2-3.1c0-3.1-3-3.5-10.6-6.4
		c-5.2-1.7-9.5-5-9.5-10.4c0-7.9,7.2-13.2,15.5-13.2c5.3,0,14.3,2.1,15.3,12.6h-11.7V343.3z"/>
	<path class="st3" d="M848.7,343.3c-0.1-0.9-0.2-3-3.7-3c-2.5,0-3.4,1.6-3.4,2.7c0,2.2,3,3.4,6.1,4.3c6.8,1.9,14,3.9,14,12.5
		c0,8.4-7.4,13.6-16.3,13.6c-6,0-15.2-2.7-16.3-13.2H841c0.5,3.7,4,3.7,4.5,3.7c2,0,4.2-1.2,4.2-3.1c0-3.1-3-3.5-10.6-6.4
		c-5.2-1.7-9.5-5-9.5-10.4c0-7.9,7.2-13.2,15.5-13.2c5.3,0,14.3,2.1,15.3,12.6h-11.7V343.3z"/>
</g>
<path class="st3" d="M662.3,418.4l6,24.8h0.1l6.6-24.8h10l6.6,24.8h0.1l6-24.8H710l-12.2,40h-11.1l-6.7-25.9h-0.1l-6.7,25.9h-11.1
	l-12.2-40H662.3z"/>
<path class="st3" d="M730.8,458.4h-12.5v-12.2h12.5V458.4z"/>
<path class="st3" d="M753.3,458.4h-12.5v-12.2h12.5V458.4z"/>
<path class="st3" d="M775.9,458.4h-12.5v-12.2h12.5V458.4z"/>
</svg>
