<?xml version="1.0" encoding="utf-8"?>
<!-- Generator: Adobe Illustrator 20.0.0, SVG Export Plug-In . SVG Version: 6.00 Build 0)  -->
<svg version="1.1" id="Layer_1" xmlns="http://www.w3.org/2000/svg" xmlns:xlink="http://www.w3.org/1999/xlink" x="0px" y="0px"
	 viewBox="0 0 1017.3 639.5" style="enable-background:new 0 0 1017.3 639.5;" xml:space="preserve">
<style type="text/css">
	.st0{fill:#8BC5FF;enable-background:new    ;}
	.st1{fill:#FF43AE;enable-background:new    ;}
	.st2{fill:#C834E3;enable-background:new    ;}
	.st3{fill:#FFFFFF;}
</style>
<circle class="st0" cx="319.8" cy="319.8" r="319.8"/>
<circle class="st1" cx="697.5" cy="319.8" r="319.8"/>
<path class="st2" d="M377.7,319.8c0,106,51.6,199.9,131,258.1c79.4-58.2,130.9-152.1,130.9-258.1S588,119.9,508.7,61.7
	C429.3,119.9,377.7,213.8,377.7,319.8z"/>
<g>
	<g>
		<path class="st3" d="M527.8,134.2c-29.1,14.3-53.5,37-70.2,64.8c-2.3,3.8,1.5,8.5,5.6,7.3c20.3-5.5,40.6-10.9,60.9-16.4
			c4.2-1.1,8.5-2.8,12.8-3.2c2.7-0.3,6.5-0.6,5.4,2.9c-1.1,3.6-3.9,7.3-5.9,10.4c-2,3.1-4.1,6.2-6.3,9.1
			c-18.3,24.9-42.9,46.3-50.9,77.2c-1.3,5.2,4.6,7.9,8.4,4.9c18.8-15.4,40.1-27.7,62.8-36.4c-1.9-2.4-3.8-4.9-5.6-7.3
			c-9.4,18.2-18.8,36.4-28.2,54.6c-4.9,9.4-9.7,18.8-14.6,28.2c-3.2,6.2-7.2,12.6-6.6,20c0.4,5.2,5.6,12.4,11.6,9.4
			c3.7-1.9,7.2-6.2,10.5-8.9c3.8-3.1,7.7-6.2,11.6-9.2c14.7-11.1,30.3-21,46.5-29.7c-2.4-1.9-4.9-3.8-7.3-5.6
			c-8,43.1-43.1,77.1-43.6,122.2c-0.1,4.2,5.6,6.7,8.5,3.5c12.1-13.1,25.8-24.5,41-34c-2.3-2.3-4.6-4.6-6.8-6.8
			c-12.8,24.6-23.4,50.4-31.5,77c-1.9,6.2,7.8,8.8,9.6,2.7c7.9-25.8,18-50.7,30.5-74.6c2.2-4.2-2.4-9.6-6.8-6.8
			c-15.8,9.9-30.3,21.8-43,35.5c2.8,1.2,5.7,2.4,8.5,3.5c0.5-43.7,35.4-77.5,43.3-119.5c0.8-4.3-3.3-7.8-7.3-5.6
			c-25,13.4-48.3,29.8-69.6,48.6c1.6-0.4,3.2-0.9,4.9-1.3c-3.5-1.1,5.7-16.8,6.6-18.7c4.6-8.8,9.1-17.6,13.7-26.4
			c9.1-17.6,18.2-35.2,27.3-52.8c1.8-3.5-1.3-9-5.6-7.3c-24.4,9.3-47,22.4-67.3,38.9c2.8,1.6,5.6,3.2,8.4,4.9
			c7-27,27.9-46.7,44.6-67.9c4.2-5.4,8.3-10.9,12-16.7c3.3-5.2,8.3-12,7.1-18.5c-2.8-14.9-22.9-7.9-32-5.5c-20,5.4-40,10.7-60,16.1
			c1.9,2.4,3.8,4.9,5.6,7.3c15.9-26.4,39-47.6,66.6-61.2C538.6,140,533.6,131.4,527.8,134.2L527.8,134.2z"/>
	</g>
</g>
<g>
	<path class="st3" d="M108.9,313.1c-3.1,12.6-14,21-26.9,21c-16.7,0-28.1-13.3-28.1-27.7c0-13.6,10.5-27.6,27.9-27.6
		c16.7,0,25.6,12.9,27.1,21.2H94.6c-1.5-4-5.5-9.3-12.9-9.3c-9.1,0-14.3,8-14.3,15.6c0,8.1,5.5,15.8,14.3,15.8c8.5,0,12-7.1,12.8-9
		H108.9z"/>
	<path class="st3" d="M115.4,279.8h12V333h-12V279.8z"/>
	<path class="st3" d="M148,288.8h-12v-9.1h12V288.8z M148,333h-12v-40h12V333z"/>
	<path class="st3" d="M157,302.2h-4.5v-9.1h4.5V291c0-11.2,9.4-12.2,15.3-12.2h1.7v9h-1.4c-1,0-3.7,0.4-3.7,3.7v1.6h5v9.1h-5V333
		h-12L157,302.2L157,302.2z"/>
	<path class="st3" d="M178.6,302.2h-4.5v-9.1h4.5V291c0-11.2,9.4-12.2,15.3-12.2h1.7v9h-1.4c-1,0-3.7,0.4-3.7,3.7v1.6h5v9.1h-5V333
		h-12L178.6,302.2L178.6,302.2z"/>
	<path class="st3" d="M217.7,304.3c-0.1-0.9-0.2-3-3.7-3c-2.5,0-3.4,1.6-3.4,2.7c0,2.2,3,3.4,6.1,4.3c6.8,1.9,14,3.9,14,12.5
		c0,8.4-7.4,13.6-16.3,13.6c-6,0-15.2-2.7-16.3-13.2H210c0.5,3.7,4,3.7,4.5,3.7c2,0,4.2-1.2,4.2-3.1c0-3.1-3-3.5-10.6-6.4
		c-5.2-1.7-9.5-5-9.5-10.4c0-7.9,7.2-13.2,15.5-13.2c5.3,0,14.3,2.1,15.3,12.6h-11.7V304.3z"/>
	<path class="st3" d="M237.2,279.8h11.7l20.6,33.5l0.1-0.1l-0.6-33.3h13V333h-11.8L250,300.6l-0.1,0.1l0.4,32.3h-13L237.2,279.8
		L237.2,279.8z"/>
	<path class="st3" d="M311,291.8c14.5,0,21.5,11.4,21.5,21.2s-7,21.2-21.5,21.2s-21.5-11.4-21.5-21.2S296.4,291.8,311,291.8z
		 M311,323.1c5.2,0,9.6-4.2,9.6-10.1c0-5.8-4.4-10.1-9.6-10.1s-9.6,4.2-9.6,10.1S305.8,323.1,311,323.1z"/>
	<path class="st3" d="M353.6,293.1h5.8v9.1h-5.8V333h-12v-30.9h-5.9V293h5.9v-13.3h12V293.1z"/>
	<path class="st3" d="M403.1,320.5c-1.9,4.5-4.8,7.9-8.1,10.2c-3.3,2.4-7.3,3.6-11.4,3.6c-11.4,0-21.2-9.3-21.2-21.2
		c0-11.2,8.8-21.5,21-21.5s21.1,9.6,21.1,21.8c0,1.6-0.1,2.2-0.3,3.2h-30c0.7,4.8,4.7,7.6,9.4,7.6c3.7,0,5.6-1.7,7.3-3.7H403.1z
		 M392.5,308.6c-0.5-2.4-2.9-6.8-9.1-6.8s-8.6,4.5-9.1,6.8H392.5z"/>
	<path class="st3" d="M428,304.3c-0.1-0.9-0.2-3-3.7-3c-2.5,0-3.4,1.6-3.4,2.7c0,2.2,3,3.4,6.1,4.3c6.8,1.9,14,3.9,14,12.5
		c0,8.4-7.4,13.6-16.3,13.6c-6,0-15.2-2.7-16.3-13.2h11.9c0.5,3.7,4,3.7,4.5,3.7c2,0,4.2-1.2,4.2-3.1c0-3.1-3-3.5-10.6-6.4
		c-5.2-1.7-9.5-5-9.5-10.4c0-7.9,7.2-13.2,15.5-13.2c5.3,0,14.3,2.1,15.3,12.6H428V304.3z"/>
</g>
<g>
	<path class="st3" d="M619.2,279.8l7.1,34.6h0.1l7.8-34.6h10.4l7.7,34.8h0.1l7.3-34.8h13.8l-14,53.2h-12l-8-34.5h-0.1l-8,34.5h-12.3
		l-13.8-53.3L619.2,279.8L619.2,279.8z"/>
	<path class="st3" d="M690.4,288.8h-12v-9.1h12V288.8z M690.4,333h-12v-40h12V333z"/>
	<path class="st3" d="M699.4,279.8h12v27.8h0.1l11.1-14.5h14.2l-15,17.6l14.6,22.4h-13.5l-11.3-19.2h-0.1V333h-12L699.4,279.8
		L699.4,279.8z"/>
	<path class="st3" d="M753.5,288.8h-12v-9.1h12V288.8z M753.5,333h-12v-40h12V333z"/>
	<path class="st3" d="M762.2,293.1h11.2v4.4h0.1h0.1c2.4-3,6.3-5.8,12.5-5.8c14.2,0,19.5,12.5,19.5,21.7c0,11.5-8.1,21-19.4,21
		c-7.2,0-10.6-3.5-12-5v16.9h-12L762.2,293.1L762.2,293.1z M793.6,313.1c0-4.8-3.5-10.2-10-10.2c-6.6,0-10,5.5-10,10.2
		c0,5,3.7,10.2,10,10.2S793.6,318.1,793.6,313.1z"/>
	<path class="st3" d="M850.9,320.5c-1.9,4.5-4.8,7.9-8.1,10.2c-3.3,2.4-7.3,3.6-11.4,3.6c-11.4,0-21.2-9.3-21.2-21.2
		c0-11.2,8.8-21.5,21-21.5s21.1,9.6,21.1,21.8c0,1.6-0.1,2.2-0.3,3.2h-30c0.7,4.8,4.7,7.6,9.4,7.6c3.7,0,5.6-1.7,7.3-3.7H850.9z
		 M840.3,308.6c-0.5-2.4-2.9-6.8-9.1-6.8s-8.6,4.5-9.1,6.8H840.3z"/>
	<path class="st3" d="M900.5,333h-11.4v-4.3H889c-1,1.7-3.9,5.6-12,5.6c-12.1,0-20-9.4-20-21.4c0-13.5,9.6-21.2,19.8-21.2
		c7.1,0,10.4,3.5,11.7,4.8v-16.7h12V333z M878.9,323.2c7.5,0,10.2-6.1,10.2-10.3c0-4.8-3.5-10-10.1-10c-6.9,0-10.2,5.4-10.2,10
		C868.9,319.1,873.3,323.2,878.9,323.2z"/>
	<path class="st3" d="M921.1,288.8h-12v-9.1h12V288.8z M921.1,333h-12v-40h12V333z"/>
	<path class="st3" d="M971.7,333h-12v-4.3h-0.1c-2,3.9-7,5.7-11.7,5.7c-12.7,0-20.1-9.9-20.1-21.4c0-13.1,9.4-21.3,20.1-21.3
		c6.6,0,10.2,3.2,11.7,5.6h0.1v-4.2h12V333z M949.7,323.3c7.5,0,10-6.3,10-10.2c0-4.8-3.3-10.2-10.1-10.2s-9.9,5.8-9.9,10.3
		C939.8,316.9,942.5,323.3,949.7,323.3z"/>
</g>
</svg>
