<svg id="On_White" xmlns="http://www.w3.org/2000/svg" viewBox="0 0 700 350"><style>.st0{fill:#353535;} .st1{fill:#88E798;}</style><g id="Dark_logo_2_"><path class="st0" d="M373.2 113.3c-10.3-16.5-12.9-34.8-1.8-84-38.7 18.4-81.7 67.8-130.5 162.7-9.4-18.1-17.9-33.9-25.7-50.1-3.8-7.8-6.9-10.3-15.2-4.7-14.3 9.7-29.5 17.9-44.4 26.8-4.2 2.5-7.8 5.1-.8 8.8 35.4 18.6 63.6 45.8 89.9 77 9.7-13.6 75-111.3 128.5-136.5zM304.1 212.2c.2-25.5 20.7-39.6 41.8-39.6 24.1.3 41.9 14.8 42.4 40.2.3 25.3-18.4 39.8-41.6 39.8-21.8 0-42.9-13.4-42.6-40.4zm52.9.6c0-11.4-4-20.3-11.1-20.4-5.9 0-10.5 8.8-10.5 20 0 12.5 4.9 20.7 11.3 20.7 6.5 0 10.3-8.9 10.3-20.3z"/><path class="st1" d="M303.7 242.9c-1.6 14.8-10.2 23.4-25.7 23.7-39.7.7-79.3.7-119 0-17.4-.3-26.3-10.4-26.4-27.6-.2-38.3-.2-76.6 0-115 .1-18.2 9.3-27.7 27.5-27.5 39.6.5 83.7 1.2 123.4 1.9C297.8 78 298.9 76.5 316.2 56c2.3-1.5-28.6-1.8-31.5-1.8-61.8-.1-97.3-.1-159.1 0-24.6.1-35.6 11.1-35.7 35.5-.1 60.9-.1 121.7 0 182.6 0 24.8 11.3 36.1 36.4 36.2 61.3.1 122.6.1 183.9 0 25 0 35.6-10.5 35.6-35.2V262c-16.3-.1-32.3-6.5-42.1-19.1z"/><path class="st1" d="M345.8 163c.1 0 .1 0 0 0 .1-4.8.1-9.7.1-14.5-.3 0-.3-.6-1.1.1-6 4.3-13.7 11.5-20.8 18.7 6.9-2.8 14.3-4.3 21.8-4.3z"/><path class="st0" d="M400.5 174.4v-14l28-9v23H443v19.8h-14.5v27.1c0 5.2-1.1 12.2 4.9 12.2 2 0 6.7-1.4 9.6-2.6v19.5c-4.6 1.8-14.9 2.9-18.4 2.9-22.9 0-23.6-12.5-24.1-32v-27.1h-8.2v-19.8h8.2zM525.6 240.1c-11.3 9.8-23.5 13.3-39.3 13.3-18.9 0-40.2-12-40.2-41.3 0-25 18-39.8 41-39.8 18.1 0 32 9.3 36.4 22.1 1.8 5.3 3.5 17.1.3 25.8h-48c.9 4.1 2.9 12.5 15.7 12.5 5.2 0 13.1-.5 21.3-7.3l12.8 14.7zM499.2 205c-.2-5.8-1.5-12.2-11.3-12.2-9.3 0-11.4 8.4-11.7 12.2h23zM531.7 250.6v-20h6.7v-36.4h-6.6v-19.8h28.7l4.6 9.8c4-7.3 7.9-13.6 23.6-13.6V198c-13.7 0-21.5 3.5-21.5 16.9v15.7h7.6v20h-43.1z"/><g><path class="st0" d="M594.9 245.3c1.1-.8 1.7-1.8 1.7-3.2 0-1.5-.7-2.5-2.1-3.1-.8-.3-1.6-.5-2.4-.5-.9 0-1.8 0-2.7.1-.3 0-.5 0-.8.1-.1 0-.2 0-.3.1v11.1l.1.1h2.6v-3.7h1.4s.1.1.1.2c.6 1.1 1.1 2.1 1.7 3.2.1.2.2.3.4.3H597.2c-.9-1.5-1.8-2.9-2.6-4.3.2-.3.3-.3.3-.4m-2.3-1.4c-.5.1-1 .1-1.5.1v-3.1c.6 0 1.2-.1 1.8.1.5.2 1.1.6 1 1.4 0 .9-.5 1.4-1.3 1.5"/><path class="st0" d="M592.1 235.8c4.7 0 8.6 3.8 8.6 8.6 0 4.7-3.8 8.6-8.6 8.6-4.7 0-8.6-3.8-8.6-8.6.1-4.8 3.9-8.6 8.6-8.6m0-1.5c-5.5 0-10 4.5-10 10s4.5 10 10 10 10-4.5 10-10c.1-5.5-4.4-10-10-10"/></g></g></svg>